<?xml version="1.0" encoding="UTF-8"?>
<svg viewBox="0 0 277.2125 267.3" xmlns="http://www.w3.org/2000/svg">
 <g transform="matrix(1.25,0,0,-1.25,0,267.3)">
  <g transform="scale(.24)">
   <path d="m762.99 853.96h-601.74c-68.312 0-124.2-53.703-124.2-119.36v-578.38c0-65.66 55.887-119.34 124.2-119.34h601.74c68.332 0 124.22 53.684 124.22 119.34v578.38c0 65.66-55.883 119.36-124.22 119.36" fill="#231f20" fill-rule="evenodd"/>
   <path d="m762.99 853.96h-601.74c-68.312 0-124.2-53.703-124.2-119.36v-578.38c0-65.66 55.887-119.34 124.2-119.34h601.74c68.332 0 124.22 53.684 124.22 119.34v578.38c0 65.66-55.883 119.36-124.22 119.36z" fill="none" stroke="#231f20" stroke-miterlimit="2.613" stroke-width="74.098"/>
   <path d="m772.8 836.93h-621.3c-53.207 0-96.75-40.942-96.75-91.02v-601.01c0-50.097 43.543-91.035 96.75-91.035h621.3c53.168 0 96.711 40.938 96.711 91.035v601.01c0 50.078-43.543 91.02-96.711 91.02z" fill="none" stroke="#fff" stroke-miterlimit="2.613" stroke-width="18.375"/>
   <path d="m450.53 279.15 31.914 18.383c-10.398 15.344-31.128 35.301-60.64 33.766-34.278-0.809-51.821-26.074-52.61-49.84-1.609-38.344 27.891-49.84 58.192-70.566 11.976-9.157 23.144-29.883 8.769-39.809-14.351-9.996-29.496 3.844-35.867 15.309l-32.703-19.153c16.754-26.804 30.285-39.879 64.598-38.344 18.347 0 55.793 17.618 51.031 65.184-2.379 29.883-31.109 44.422-57.402 63.609-8.77 6.153-15.965 17.653-14.356 24.5 2.399 10.766 11.133 15.344 20.727 12.305 8.789-2.305 14.375-8.461 18.347-15.344" fill="#fff" fill-rule="evenodd"/>
   <path d="m755.15 279.15 31.895 18.383c-9.555 15.344-31.09 35.301-60.606 33.766-34.277-0.809-51.816-26.074-52.586-49.84-1.613-38.344 28.637-49.84 58.153-70.566 11.976-9.157 23.144-29.883 8.789-39.809-14.356-9.996-29.516 3.844-35.082 15.309l-33.473-19.153c16.738-26.804 31.055-39.879 64.528-38.344 18.382 0 55.882 17.618 51.046 65.184-2.343 29.883-31.054 44.422-57.418 63.609-8.753 6.153-15.894 17.653-14.281 24.5 2.344 10.766 11.129 15.344 20.653 12.305 8.789-2.305 14.39-8.461 18.382-15.344" fill="#fff" fill-rule="evenodd"/>
   <path d="m581.28 169.55c18.379 0 21.567 30.652 21.567 64.418 0 26.805-3.188 57.457-21.567 57.457-19.117 0-21.535-30.652-22.304-57.457 0-33.766 3.187-64.418 22.304-64.418zm0 164.02c47.055 0 64.598-52.109 65.403-96.601 0-56.692-18.348-111.14-65.403-108.84-48.633-2.309-66.98 52.144-66.176 108.84 0 44.492 18.348 96.601 66.176 96.601" fill="#fff" fill-rule="evenodd"/>
   <path d="m582.16 731.61-42.773 34.516c-240.91 47.969-494.08-405.97-386.64-452.44l47.277-44.532c12.743-8.168 33.325-9.89 50.536 12.34l76.187 87.156c3.059 6.008 24.59 33.176-22.484 62.766l-15.985 17.102c-34.695-14.426 77.672 177.32 141.7 159.57l25.707-18.606c15.106-7.98 30.414-30.961 57.145-7.945l86.168 96.055c8.789 22.687 12.047 26.402-16.844 54.015" fill="#fff" fill-rule="evenodd"/>
   <path d="m582.16 731.61-42.773 34.516c-240.91 47.969-494.08-405.97-386.64-452.44l47.277-44.532c12.743-8.168 33.325-9.89 50.536 12.34l76.187 87.156c3.059 6.008 24.59 33.176-22.484 62.766l-15.985 17.102c-34.695-14.426 77.672 177.32 141.7 159.57l25.707-18.606c15.106-7.98 30.414-30.961 57.145-7.945l86.168 96.055c8.789 22.687 12.047 26.402-16.844 54.015z" fill="none" stroke="#fff" stroke-miterlimit="2.613" stroke-width="7.95"/>
  </g>
 </g>
</svg>
